<?xml version="1.0" encoding="UTF-8" standalone="no"?>
<!DOCTYPE svg PUBLIC "-//W3C//DTD SVG 1.1//EN"
 "http://www.w3.org/Graphics/SVG/1.1/DTD/svg11.dtd">
<!-- Generated by graphviz version 2.40.1 (20161225.0304)
 -->
<!-- Title: %3 Pages: 1 -->
<svg width="1762pt" height="410pt"
 viewBox="0.00 0.00 1761.63 410.00" xmlns="http://www.w3.org/2000/svg" xmlns:xlink="http://www.w3.org/1999/xlink">
<g id="graph0" class="graph" transform="scale(1 1) rotate(0) translate(4 406)">
<title>%3</title>
<polygon fill="#ffffff" stroke="transparent" points="-4,4 -4,-406 1757.6279,-406 1757.6279,4 -4,4"/>
<g id="clust1" class="cluster">
<title>cluster&#45;nid&#45;10</title>
<polygon fill="none" stroke="#cccccc" points="8,-228 8,-294 402.958,-294 402.958,-228 8,-228"/>
</g>
<g id="clust2" class="cluster">
<title>cluster&#45;nid&#45;11</title>
<polygon fill="none" stroke="#cccccc" points="8,-154 8,-220 402.958,-220 402.958,-154 8,-154"/>
</g>
<g id="clust4" class="cluster">
<title>cluster&#45;nid&#45;13</title>
<polygon fill="none" stroke="#cccccc" points="1350.6699,-103 1350.6699,-169 1745.6279,-169 1745.6279,-103 1350.6699,-103"/>
</g>
<g id="clust5" class="cluster">
<title>cluster&#45;nid&#45;14</title>
<polygon fill="none" stroke="#cccccc" points="1350.6699,-191 1350.6699,-257 1745.6279,-257 1745.6279,-191 1350.6699,-191"/>
</g>
<g id="clust6" class="cluster">
<title>cluster&#45;nid&#45;15</title>
<polygon fill="none" stroke="#cccccc" points="605.6985,-272 605.6985,-394 1118.4534,-394 1118.4534,-272 605.6985,-272"/>
</g>
<g id="clust7" class="cluster">
<title>cluster&#45;nid&#45;16&#45;in</title>
<polygon fill="none" stroke="#cccccc" points="602.958,-184 602.958,-264 785.7041,-264 785.7041,-184 602.958,-184"/>
</g>
<g id="clust9" class="cluster">
<title>cluster&#45;nid&#45;17&#45;in</title>
<polygon fill="none" stroke="#cccccc" points="603.2964,-96 603.2964,-176 785.3657,-176 785.3657,-96 603.2964,-96"/>
</g>
<g id="clust12" class="cluster">
<title>cluster&#45;nid&#45;18&#45;out</title>
<polygon fill="none" stroke="#cccccc" points="985.7041,-8 985.7041,-88 1150.6699,-88 1150.6699,-8 985.7041,-8"/>
</g>
<g id="clust14" class="cluster">
<title>cluster&#45;nid&#45;19&#45;out</title>
<polygon fill="none" stroke="#cccccc" points="986.4799,-96 986.4799,-176 1149.894,-176 1149.894,-96 986.4799,-96"/>
</g>
<g id="clust16" class="cluster">
<title>cluster&#45;nid&#45;1a&#45;out</title>
<polygon fill="none" stroke="#cccccc" points="989.8125,-184 989.8125,-264 1146.5615,-264 1146.5615,-184 989.8125,-184"/>
</g>
<!-- nid&#45;10 -->
<g id="node1" class="node">
<title>nid&#45;10</title>
<ellipse fill="none" stroke="#0000ff" cx="70.479" cy="-261" rx="54.458" ry="25.4118"/>
<text text-anchor="middle" x="70.479" y="-263.8" font-family="Times,serif" font-size="14.00" fill="#000000">0x10</text>
<text text-anchor="middle" x="70.479" y="-249.8" font-family="Times,serif" font-size="14.00" fill="#000000">Stereo R/L</text>
</g>
<!-- nid&#45;10&#45;ampout -->
<g id="node2" class="node">
<title>nid&#45;10&#45;ampout</title>
<polygon fill="none" stroke="#c8c8c8" points="394.958,-261 354.458,-279 354.458,-243 394.958,-261"/>
</g>
<!-- nid&#45;10&#45;&gt;nid&#45;10&#45;ampout -->
<g id="edge1" class="edge">
<title>nid&#45;10&#45;&gt;nid&#45;10&#45;ampout</title>
<path fill="none" stroke="#c8c8c8" d="M125.0412,-261C192.8987,-261 305.1819,-261 349.3197,-261"/>
<polygon fill="#c8c8c8" stroke="#c8c8c8" points="349.357,-262.7501 354.357,-261 349.357,-259.2501 349.357,-262.7501"/>
</g>
<!-- nid&#45;15&#45;ampin&#45;16 -->
<g id="node13" class="node">
<title>nid&#45;15&#45;ampin&#45;16</title>
<polygon fill="none" stroke="#0000ff" points="775.0962,-364 653.9484,-386 653.9484,-342 775.0962,-364"/>
<text text-anchor="middle" x="694.331" y="-359.8" font-family="Times,serif" font-size="14.00" fill="#000000">0 (0x10)</text>
</g>
<!-- nid&#45;10&#45;ampout&#45;&gt;nid&#45;15&#45;ampin&#45;16 -->
<g id="edge13" class="edge">
<title>nid&#45;10&#45;ampout&#45;&gt;nid&#45;15&#45;ampin&#45;16</title>
<path fill="none" stroke="#333333" d="M384.1429,-266.1078C431.1043,-280.9283 568.8238,-324.3912 643.9816,-348.1102"/>
<polygon fill="#333333" stroke="#333333" points="643.123,-351.5094 653.7127,-351.1813 645.2297,-344.8339 643.123,-351.5094"/>
</g>
<!-- nid&#45;16&#45;in -->
<g id="node15" class="node">
<title>nid&#45;16&#45;in</title>
<polygon fill="none" stroke="#00ff00" points="777.5773,-256 611.0847,-256 611.0847,-192 777.5773,-192 777.5773,-256"/>
<text text-anchor="middle" x="694.331" y="-240.8" font-family="Times,serif" font-size="14.00" fill="#000000">0x16</text>
<text text-anchor="middle" x="694.331" y="-226.8" font-family="Times,serif" font-size="14.00" fill="#000000">[Jack] HP Out at Ext Right</text>
<text text-anchor="middle" x="694.331" y="-212.8" font-family="Times,serif" font-size="14.00" fill="#000000">Stereo</text>
<text text-anchor="middle" x="694.331" y="-198.8" font-family="Times,serif" font-size="14.00" fill="#000000">OUT HP Detect</text>
</g>
<!-- nid&#45;10&#45;ampout&#45;&gt;nid&#45;16&#45;in -->
<g id="edge15" class="edge">
<title>nid&#45;10&#45;ampout&#45;&gt;nid&#45;16&#45;in</title>
<path fill="none" stroke="#333333" d="M389.625,-258.5437C431.9134,-253.7496 527.6867,-242.892 600.6556,-234.6197"/>
<polygon fill="#333333" stroke="#333333" points="601.2504,-238.0748 610.7925,-233.4705 600.4619,-231.1193 601.2504,-238.0748"/>
</g>
<!-- nid&#45;17&#45;in -->
<g id="node16" class="node">
<title>nid&#45;17&#45;in</title>
<polygon fill="none" stroke="#00ff00" points="777.4004,-168 611.2617,-168 611.2617,-104 777.4004,-104 777.4004,-168"/>
<text text-anchor="middle" x="694.331" y="-152.8" font-family="Times,serif" font-size="14.00" fill="#000000">0x17</text>
<text text-anchor="middle" x="694.331" y="-138.8" font-family="Times,serif" font-size="14.00" fill="#000000">[Fixed] Speaker at Int N/A</text>
<text text-anchor="middle" x="694.331" y="-124.8" font-family="Times,serif" font-size="14.00" fill="#000000">Stereo</text>
<text text-anchor="middle" x="694.331" y="-110.8" font-family="Times,serif" font-size="14.00" fill="#000000">OUT</text>
</g>
<!-- nid&#45;10&#45;ampout&#45;&gt;nid&#45;17&#45;in -->
<g id="edge17" class="edge">
<title>nid&#45;10&#45;ampout&#45;&gt;nid&#45;17&#45;in</title>
<path fill="none" stroke="#c0c0c0" stroke-dasharray="5,2" d="M382.8296,-255.3042C420.8588,-240.7391 524.0951,-201.1999 601.37,-171.6038"/>
<polygon fill="#c0c0c0" stroke="#c0c0c0" points="603.0488,-174.7088 611.1355,-167.8637 600.5451,-168.1719 603.0488,-174.7088"/>
</g>
<!-- nid&#45;11 -->
<g id="node3" class="node">
<title>nid&#45;11</title>
<ellipse fill="none" stroke="#0000ff" cx="70.479" cy="-187" rx="54.458" ry="25.4118"/>
<text text-anchor="middle" x="70.479" y="-189.8" font-family="Times,serif" font-size="14.00" fill="#000000">0x11</text>
<text text-anchor="middle" x="70.479" y="-175.8" font-family="Times,serif" font-size="14.00" fill="#000000">Stereo R/L</text>
</g>
<!-- nid&#45;11&#45;ampout -->
<g id="node4" class="node">
<title>nid&#45;11&#45;ampout</title>
<polygon fill="none" stroke="#0000ff" points="394.958,-187 354.458,-205 354.458,-169 394.958,-187"/>
</g>
<!-- nid&#45;11&#45;&gt;nid&#45;11&#45;ampout -->
<g id="edge2" class="edge">
<title>nid&#45;11&#45;&gt;nid&#45;11&#45;ampout</title>
<path fill="none" stroke="#0000ff" d="M125.0412,-187C192.8987,-187 305.1819,-187 349.3197,-187"/>
<polygon fill="#0000ff" stroke="#0000ff" points="349.357,-188.7501 354.357,-187 349.357,-185.2501 349.357,-188.7501"/>
</g>
<!-- nid&#45;15&#45;ampin&#45;17 -->
<g id="node14" class="node">
<title>nid&#45;15&#45;ampin&#45;17</title>
<polygon fill="none" stroke="#0000ff" points="774.3005,-302 654.3463,-324 654.3463,-280 774.3005,-302"/>
<text text-anchor="middle" x="694.331" y="-297.8" font-family="Times,serif" font-size="14.00" fill="#000000">1 (0x11)</text>
</g>
<!-- nid&#45;11&#45;ampout&#45;&gt;nid&#45;15&#45;ampin&#45;17 -->
<g id="edge14" class="edge">
<title>nid&#45;11&#45;ampout&#45;&gt;nid&#45;15&#45;ampin&#45;17</title>
<path fill="none" stroke="#333333" d="M383.2619,-192.3924C429.4557,-208.6692 568.9376,-257.8167 644.4618,-284.4282"/>
<polygon fill="#333333" stroke="#333333" points="643.6386,-287.849 654.2334,-287.8713 645.9649,-281.2469 643.6386,-287.849"/>
</g>
<!-- nid&#45;11&#45;ampout&#45;&gt;nid&#45;16&#45;in -->
<g id="edge16" class="edge">
<title>nid&#45;11&#45;ampout&#45;&gt;nid&#45;16&#45;in</title>
<path fill="none" stroke="#c0c0c0" stroke-dasharray="5,2" d="M389.625,-189.4563C431.9134,-194.2504 527.6867,-205.108 600.6556,-213.3803"/>
<polygon fill="#c0c0c0" stroke="#c0c0c0" points="600.4619,-216.8807 610.7925,-214.5295 601.2504,-209.9252 600.4619,-216.8807"/>
</g>
<!-- nid&#45;11&#45;ampout&#45;&gt;nid&#45;17&#45;in -->
<g id="edge18" class="edge">
<title>nid&#45;11&#45;ampout&#45;&gt;nid&#45;17&#45;in</title>
<path fill="none" stroke="#333333" d="M388.3741,-183.8097C430.0253,-177.3012 527.0844,-162.1344 600.7996,-150.6155"/>
<polygon fill="#333333" stroke="#333333" points="601.6983,-154.0176 611.038,-149.0156 600.6175,-147.1016 601.6983,-154.0176"/>
</g>
<!-- nid&#45;13 -->
<g id="node5" class="node">
<title>nid&#45;13</title>
<ellipse fill="none" stroke="#ff0000" cx="1683.1489" cy="-136" rx="54.458" ry="25.4118"/>
<text text-anchor="middle" x="1683.1489" y="-138.8" font-family="Times,serif" font-size="14.00" fill="#000000">0x13</text>
<text text-anchor="middle" x="1683.1489" y="-124.8" font-family="Times,serif" font-size="14.00" fill="#000000">Stereo R/L</text>
</g>
<!-- nid&#45;13&#45;ampin -->
<g id="node6" class="node">
<title>nid&#45;13&#45;ampin</title>
<polygon fill="none" stroke="#c8c8c8" points="1412.6699,-136 1372.1699,-154 1372.1699,-118 1412.6699,-136"/>
</g>
<!-- nid&#45;13&#45;ampin&#45;&gt;nid&#45;13 -->
<g id="edge3" class="edge">
<title>nid&#45;13&#45;ampin&#45;&gt;nid&#45;13</title>
<path fill="none" stroke="#c8c8c8" d="M1412.8578,-136C1460.2905,-136 1559.2127,-136 1623.3212,-136"/>
<polygon fill="#c8c8c8" stroke="#c8c8c8" points="1623.6435,-137.7501 1628.6434,-136 1623.6434,-134.2501 1623.6435,-137.7501"/>
</g>
<!-- nid&#45;18&#45;out -->
<g id="node7" class="node">
<title>nid&#45;18&#45;out</title>
<polygon fill="none" stroke="#00ff00" points="1142.6528,-80 993.7212,-80 993.7212,-16 1142.6528,-16 1142.6528,-80"/>
<text text-anchor="middle" x="1068.187" y="-64.8" font-family="Times,serif" font-size="14.00" fill="#000000">0x18</text>
<text text-anchor="middle" x="1068.187" y="-50.8" font-family="Times,serif" font-size="14.00" fill="#000000">[N/A] Other at Ext N/A</text>
<text text-anchor="middle" x="1068.187" y="-36.8" font-family="Times,serif" font-size="14.00" fill="#000000">Stereo</text>
<text text-anchor="middle" x="1068.187" y="-22.8" font-family="Times,serif" font-size="14.00" fill="#000000">IN Detect</text>
</g>
<!-- nid&#45;18&#45;out&#45;&gt;nid&#45;13&#45;ampin -->
<g id="edge4" class="edge">
<title>nid&#45;18&#45;out&#45;&gt;nid&#45;13&#45;ampin</title>
<path fill="none" stroke="#c0c0c0" stroke-dasharray="5,2" d="M1143.024,-68.7433C1214.1357,-88.4541 1316.7724,-116.903 1362.3485,-129.5358"/>
<polygon fill="#c0c0c0" stroke="#c0c0c0" points="1361.5925,-132.9581 1372.164,-132.2564 1363.4623,-126.2124 1361.5925,-132.9581"/>
</g>
<!-- nid&#45;1a&#45;out -->
<g id="node8" class="node">
<title>nid&#45;1a&#45;out</title>
<polygon fill="none" stroke="#00ff00" points="1138.4362,-256 997.9377,-256 997.9377,-192 1138.4362,-192 1138.4362,-256"/>
<text text-anchor="middle" x="1068.187" y="-240.8" font-family="Times,serif" font-size="14.00" fill="#000000">0x1a</text>
<text text-anchor="middle" x="1068.187" y="-226.8" font-family="Times,serif" font-size="14.00" fill="#000000">[Fixed] Mic at Int Top</text>
<text text-anchor="middle" x="1068.187" y="-212.8" font-family="Times,serif" font-size="14.00" fill="#000000">Stereo</text>
<text text-anchor="middle" x="1068.187" y="-198.8" font-family="Times,serif" font-size="14.00" fill="#000000">IN</text>
</g>
<!-- nid&#45;1a&#45;out&#45;&gt;nid&#45;13&#45;ampin -->
<g id="edge5" class="edge">
<title>nid&#45;1a&#45;out&#45;&gt;nid&#45;13&#45;ampin</title>
<path fill="none" stroke="#333333" d="M1138.6467,-204.4699C1209.8284,-184.7398 1315.7354,-155.3845 1362.2872,-142.4812"/>
<polygon fill="#333333" stroke="#333333" points="1363.339,-145.8217 1372.0408,-139.7777 1361.4692,-139.0761 1363.339,-145.8217"/>
</g>
<!-- nid&#45;14&#45;ampin -->
<g id="node11" class="node">
<title>nid&#45;14&#45;ampin</title>
<polygon fill="none" stroke="#0000ff" points="1412.6699,-224 1372.1699,-242 1372.1699,-206 1412.6699,-224"/>
</g>
<!-- nid&#45;1a&#45;out&#45;&gt;nid&#45;14&#45;ampin -->
<g id="edge9" class="edge">
<title>nid&#45;1a&#45;out&#45;&gt;nid&#45;14&#45;ampin</title>
<path fill="none" stroke="#c0c0c0" stroke-dasharray="5,2" d="M1138.6467,-224C1209.6785,-224 1315.2896,-224 1361.9924,-224"/>
<polygon fill="#c0c0c0" stroke="#c0c0c0" points="1362.0408,-227.5001 1372.0408,-224 1362.0407,-220.5001 1362.0408,-227.5001"/>
</g>
<!-- nid&#45;19&#45;out -->
<g id="node9" class="node">
<title>nid&#45;19&#45;out</title>
<polygon fill="none" stroke="#00ff00" points="1142.1016,-168 994.2723,-168 994.2723,-104 1142.1016,-104 1142.1016,-168"/>
<text text-anchor="middle" x="1068.187" y="-152.8" font-family="Times,serif" font-size="14.00" fill="#000000">0x19</text>
<text text-anchor="middle" x="1068.187" y="-138.8" font-family="Times,serif" font-size="14.00" fill="#000000">[Jack] Mic at Ext Right</text>
<text text-anchor="middle" x="1068.187" y="-124.8" font-family="Times,serif" font-size="14.00" fill="#000000">Stereo</text>
<text text-anchor="middle" x="1068.187" y="-110.8" font-family="Times,serif" font-size="14.00" fill="#000000">IN Detect</text>
</g>
<!-- nid&#45;19&#45;out&#45;&gt;nid&#45;13&#45;ampin -->
<g id="edge6" class="edge">
<title>nid&#45;19&#45;out&#45;&gt;nid&#45;13&#45;ampin</title>
<path fill="none" stroke="#c0c0c0" stroke-dasharray="5,2" d="M1142.2219,-136C1213.1473,-136 1315.9781,-136 1361.9329,-136"/>
<polygon fill="#c0c0c0" stroke="#c0c0c0" points="1362.0904,-139.5001 1372.0904,-136 1362.0903,-132.5001 1362.0904,-139.5001"/>
</g>
<!-- nid&#45;19&#45;out&#45;&gt;nid&#45;14&#45;ampin -->
<g id="edge8" class="edge">
<title>nid&#45;19&#45;out&#45;&gt;nid&#45;14&#45;ampin</title>
<path fill="none" stroke="#333333" d="M1142.2219,-156.521C1213.2972,-176.2217 1316.413,-204.8034 1362.2236,-217.5011"/>
<polygon fill="#333333" stroke="#333333" points="1361.5188,-220.9377 1372.0904,-220.236 1363.3886,-214.192 1361.5188,-220.9377"/>
</g>
<!-- nid&#45;14 -->
<g id="node10" class="node">
<title>nid&#45;14</title>
<ellipse fill="none" stroke="#ff0000" cx="1683.1489" cy="-224" rx="54.458" ry="25.4118"/>
<text text-anchor="middle" x="1683.1489" y="-226.8" font-family="Times,serif" font-size="14.00" fill="#000000">0x14</text>
<text text-anchor="middle" x="1683.1489" y="-212.8" font-family="Times,serif" font-size="14.00" fill="#000000">Stereo R/L</text>
</g>
<!-- nid&#45;14&#45;ampin&#45;&gt;nid&#45;14 -->
<g id="edge7" class="edge">
<title>nid&#45;14&#45;ampin&#45;&gt;nid&#45;14</title>
<path fill="none" stroke="#0000ff" d="M1412.8578,-224C1460.2905,-224 1559.2127,-224 1623.3212,-224"/>
<polygon fill="#0000ff" stroke="#0000ff" points="1623.6435,-225.7501 1628.6434,-224 1623.6434,-222.2501 1623.6435,-225.7501"/>
</g>
<!-- nid&#45;15 -->
<g id="node12" class="node">
<title>nid&#45;15</title>
<polygon fill="none" stroke="#000000" points="1110.2212,-309 1089.2041,-338.2881 1047.1699,-338.2881 1026.1528,-309 1047.1699,-279.7119 1089.2041,-279.7119 1110.2212,-309"/>
<text text-anchor="middle" x="1068.187" y="-311.8" font-family="Times,serif" font-size="14.00" fill="#000000">0x15</text>
<text text-anchor="middle" x="1068.187" y="-297.8" font-family="Times,serif" font-size="14.00" fill="#000000">Stereo</text>
</g>
<!-- nid&#45;15&#45;&gt;nid&#45;14&#45;ampin -->
<g id="edge10" class="edge">
<title>nid&#45;15&#45;&gt;nid&#45;14&#45;ampin</title>
<path fill="none" stroke="#c0c0c0" stroke-dasharray="5,2" d="M1103.6822,-299.4968C1169.063,-281.9924 1306.8742,-245.0961 1362.0739,-230.3174"/>
<polygon fill="#c0c0c0" stroke="#c0c0c0" points="1363.2118,-233.6361 1371.9664,-227.6689 1361.4014,-226.8742 1363.2118,-233.6361"/>
</g>
<!-- nid&#45;15&#45;ampin&#45;16&#45;&gt;nid&#45;15 -->
<g id="edge11" class="edge">
<title>nid&#45;15&#45;ampin&#45;16&#45;&gt;nid&#45;15</title>
<path fill="none" stroke="#0000ff" d="M739.0554,-357.4203C811.4522,-346.7697 953.3965,-325.8875 1024.8762,-315.3717"/>
<polygon fill="#0000ff" stroke="#0000ff" points="1025.207,-317.0919 1029.899,-314.6327 1024.6976,-313.6292 1025.207,-317.0919"/>
</g>
<!-- nid&#45;15&#45;ampin&#45;17&#45;&gt;nid&#45;15 -->
<g id="edge12" class="edge">
<title>nid&#45;15&#45;ampin&#45;17&#45;&gt;nid&#45;15</title>
<path fill="none" stroke="#0000ff" d="M767.3017,-303.3663C842.5359,-304.775 957.5956,-306.9293 1021.4276,-308.1245"/>
<polygon fill="#0000ff" stroke="#0000ff" points="1021.6557,-309.879 1026.6876,-308.223 1021.7213,-306.3796 1021.6557,-309.879"/>
</g>
</g>
</svg>
